<svg width="1024" height="1024" viewBox="0 0 1024 1024" fill="none" xmlns="http://www.w3.org/2000/svg">
  <defs>
    <linearGradient id="bg" x1="120" y1="110" x2="884" y2="928" gradientUnits="userSpaceOnUse">
      <stop offset="0" stop-color="#0F1B2E"/>
      <stop offset="0.56" stop-color="#12253C"/>
      <stop offset="1" stop-color="#0A1322"/>
    </linearGradient>
    <radialGradient id="bgGlowA" cx="0" cy="0" r="1" gradientUnits="userSpaceOnUse" gradientTransform="translate(314 276) rotate(41) scale(420 362)">
      <stop offset="0" stop-color="#2DD4BF" stop-opacity="0.22"/>
      <stop offset="1" stop-color="#2DD4BF" stop-opacity="0"/>
    </radialGradient>
    <radialGradient id="bgGlowB" cx="0" cy="0" r="1" gradientUnits="userSpaceOnUse" gradientTransform="translate(694 766) rotate(180) scale(328 286)">
      <stop offset="0" stop-color="#F59E0B" stop-opacity="0.18"/>
      <stop offset="1" stop-color="#F59E0B" stop-opacity="0"/>
    </radialGradient>
    <linearGradient id="crest" x1="248" y1="232" x2="760" y2="794" gradientUnits="userSpaceOnUse">
      <stop offset="0" stop-color="#F8FBFF"/>
      <stop offset="1" stop-color="#C6DCF4"/>
    </linearGradient>
    <filter id="crestShadow" x="108" y="132" width="820" height="804" filterUnits="userSpaceOnUse" color-interpolation-filters="sRGB">
      <feFlood flood-opacity="0" result="BackgroundImageFix"/>
      <feColorMatrix in="SourceAlpha" type="matrix" values="0 0 0 0 0 0 0 0 0 0 0 0 0 0 0 0 0 0 127 0" result="hardAlpha"/>
      <feOffset dy="18"/>
      <feGaussianBlur stdDeviation="28"/>
      <feComposite in2="hardAlpha" operator="out"/>
      <feColorMatrix type="matrix" values="0 0 0 0 0.0156863 0 0 0 0 0.0470588 0 0 0 0 0.101961 0 0 0 0.34 0"/>
      <feBlend mode="normal" in2="BackgroundImageFix" result="effect1_dropShadow_1_1"/>
      <feBlend mode="normal" in="SourceGraphic" in2="effect1_dropShadow_1_1" result="shape"/>
    </filter>
    <radialGradient id="innerGlow" cx="0" cy="0" r="1" gradientUnits="userSpaceOnUse" gradientTransform="translate(458 432) rotate(48) scale(286 246)">
      <stop offset="0" stop-color="#4FD1C5" stop-opacity="0.18"/>
      <stop offset="1" stop-color="#4FD1C5" stop-opacity="0"/>
    </radialGradient>
  </defs>

  <rect x="80" y="80" width="864" height="864" rx="220" fill="url(#bg)"/>
  <rect x="80" y="80" width="864" height="864" rx="220" fill="url(#bgGlowA)"/>
  <rect x="80" y="80" width="864" height="864" rx="220" fill="url(#bgGlowB)"/>

  <g filter="url(#crestShadow)">
    <path
      d="M740 292C676 240 597 214 502 214C335 214 214 335 214 502C214 669 335 810 502 810C594 810 674 783 742 728"
      stroke="url(#crest)"
      stroke-width="150"
      stroke-linecap="square"
      stroke-linejoin="round"
    />
  </g>
  <path
    d="M672 323C623 285 567 266 503 266C364 266 266 365 266 502C266 639 364 758 503 758C565 758 621 740 672 704"
    stroke="#0F2136"
    stroke-opacity="0.64"
    stroke-width="44"
    stroke-linecap="square"
    stroke-linejoin="round"
  />
  <path
    d="M354 256C317 285 287 320 265 362"
    stroke="white"
    stroke-opacity="0.26"
    stroke-width="22"
    stroke-linecap="round"
  />
  <path
    d="M80 80H944V944H80V80Z"
    fill="url(#innerGlow)"
  />
</svg>
